<svg xmlns="http://www.w3.org/2000/svg" width="16.9" height="16.943" viewBox="0 0 16.9 16.943">
  <path id="bath" d="M16.9,10.378H3.378V4.04a1.8,1.8,0,0,1,.532-1.284l.014-.014a1.82,1.82,0,0,1,2.063-.358,2.785,2.785,0,0,0,.415,3.4l.386.386-.71.71.8.8.71-.71,3.932-3.932.71-.71-.8-.8-.71.71-.386-.386a2.785,2.785,0,0,0-3.554-.316,2.944,2.944,0,0,0-3.653.408l-.014.014A2.924,2.924,0,0,0,2.252,4.04v6.337H1.125V11.5H2.252v1.081a.843.843,0,0,0,.044.267L3.343,16a.844.844,0,0,0,.8.578H4.6l-.411,1.408H5.362l.411-1.408H13.1l.423,1.409H14.7l-.423-1.409H15a.844.844,0,0,0,.8-.578l1.048-3.144a.844.844,0,0,0,.044-.267V11.5h1.127V10.378ZM7.2,2.65a1.655,1.655,0,0,1,2.339,0l.386.386L7.585,5.375,7.2,4.989A1.656,1.656,0,0,1,7.2,2.65Zm8.573,9.89L14.8,15.448H4.348L3.378,12.54V11.5H15.772Z" transform="translate(-1.125 -1.041)" fill="#bcbcbc"/>
</svg>
