<svg xmlns="http://www.w3.org/2000/svg" width="20.843" height="14.938" viewBox="0 0 20.843 14.938">
  <path id="bed" d="M18.494,13.814H9.462v5.238H8.5v-1.78a3.809,3.809,0,0,0-3.8-3.8H2.515V10.688H1.125V25.626h1.39V23.552l18.064.145v1.928h1.39V17.288a3.477,3.477,0,0,0-3.474-3.474ZM2.515,14.857H4.7a2.418,2.418,0,0,1,2.415,2.415v1.78h-4.6Zm18.064,7.451L2.515,22.163V20.442H20.578Zm0-3.255H10.852V15.2h7.642a2.087,2.087,0,0,1,2.084,2.084Z" transform="translate(-1.125 -10.688)" fill="#bcbcbc"/>
</svg>
